<?xml version="1.0" encoding="iso-8859-1"?>
<!DOCTYPE svg PUBLIC "-//W3C//DTD SVG 1.1//EN" "http://www.w3.org/Graphics/SVG/1.1/DTD/svg11.dtd">
<svg 
 version="1.1" xmlns="http://www.w3.org/2000/svg" xmlns:xlink="http://www.w3.org/1999/xlink" x="0px" y="0px" width="512px"
	 height="512px" viewBox="0 0 512 512" style="enable-background:new 0 0 512 512;" xml:space="preserve"
><g id="afcae5a789ccd549f9c6e2a2f81781ff"><g></g><g fill="#ff0015"><path style="display: inline;" d="M14.291,74.364v121.088h26.571V74.364h13.791v121.088h26.571V74.364h13.792v121.088v26.908H67.771
		v215.276H27.408V222.36H0.5v-26.908V74.364H14.291z M159.431,267.352c0,62.598,50.926,113.523,113.521,113.523
		c62.597,0,113.522-50.926,113.522-113.523c0-62.596-50.926-113.522-113.522-113.522
		C210.357,153.83,159.431,204.755,159.431,267.352z M272.952,108.421c87.776,0,158.932,71.155,158.932,158.931
		c0,87.777-71.155,158.933-158.932,158.933c-87.774,0-158.93-71.155-158.93-158.933
		C114.022,179.576,185.178,108.421,272.952,108.421z M272.952,403.579c75.116,0,136.228-61.115,136.228-136.228
		c0-75.12-61.111-136.226-136.228-136.226c-75.119,0-136.225,61.106-136.225,136.226
		C136.727,342.464,197.833,403.579,272.952,403.579z M486.447,74.364c-13.838,0-25.054,11.215-25.054,25.053v150.32h12.526v187.899
		h37.58V99.417C511.5,85.579,500.282,74.364,486.447,74.364z"></path></g></g></svg>