<?xml version="1.0" encoding="iso-8859-1"?>
<!DOCTYPE svg PUBLIC "-//W3C//DTD SVG 1.1//EN" "http://www.w3.org/Graphics/SVG/1.1/DTD/svg11.dtd">
<svg 
 version="1.1" xmlns="http://www.w3.org/2000/svg" xmlns:xlink="http://www.w3.org/1999/xlink" x="0px" y="0px" width="512px"
	 height="512px" viewBox="0 0 512 512" style="enable-background:new 0 0 512 512;" xml:space="preserve"
><g id="afcae5a789ccd549f9c6e2a2f8183f1a"><g></g><g fill="#ffa742"><path style="display: inline; fill-rule: evenodd; clip-rule: evenodd;" d="M479.198,286.978c0,0-55.862,31.434-134.845,47.989
		c-156.319,32.798-262.769,26.115-262.769,26.115S8.952,357.307,1.75,314.465c-10.796-64.045,51.886-92.377,51.886-92.377
		s13.707-8.093,43.66-19.479c46.542,24.598,74.542,60.564,68.466,95.101c-0.541,3.069-1.356,6.051-2.396,8.958
		c5.631-7.469,9.448-15.728,11.028-24.693c5.46-31.047-16.634-63.239-54.955-87.292c22.397-7.585,50.896-15.965,86.065-24.132
		c60.311,23.945,99.026,65.888,91.982,105.914c-0.541,3.068-1.352,6.055-2.392,8.957c5.627-7.469,9.444-15.728,11.024-24.693
		c6.2-35.243-23.088-71.967-71.344-96.585c8.192-1.688,16.68-3.352,25.496-4.982c22.186-4.109,42.895-6.5,61.857-7.735
		c46.763,24.602,74.938,60.665,68.841,95.292c-0.541,3.069-1.352,6.055-2.392,8.958c5.627-7.469,9.444-15.728,11.024-24.693
		c4.974-28.257-12.892-57.467-45.037-80.625c55.367,0.008,89.051,9.494,89.051,9.494s47.79,4.196,64.166,55.379
		C524.542,267.615,479.198,286.978,479.198,286.978z"></path></g></g></svg>