<?xml version="1.0" encoding="iso-8859-1"?>
<!DOCTYPE svg PUBLIC "-//W3C//DTD SVG 1.1//EN" "http://www.w3.org/Graphics/SVG/1.1/DTD/svg11.dtd">
<svg 
 version="1.1" xmlns="http://www.w3.org/2000/svg" xmlns:xlink="http://www.w3.org/1999/xlink" x="0px" y="0px" width="512px"
	 height="512px" viewBox="0 0 512 512" style="enable-background:new 0 0 512 512;" xml:space="preserve"
><g id="afcae5a789ccd549f9c6e2a2f8177e14"><g></g><path style="display: inline;" d="M325.986,240.742L56.286,510.439l-42.58-42.584l269.692-269.692L325.986,240.742z
		 M460.833,191.063c43.112-43.116,50.028-106.111,15.431-140.705c-34.586-34.586-97.585-27.678-140.697,15.438
		c-43.121,43.112-50.028,106.111-15.439,140.701C354.717,241.092,417.712,234.176,460.833,191.063z M311.363,268.607l-42.584,42.588
		L469.089,511.5l42.588-42.579L311.363,268.607z M210.445,252.86l42.583-42.588l-11.048-11.049l-42.588,42.584L210.445,252.86z
		 M156.459,256.356l99.716-99.716l-28.389-28.39L100.035,0.5L85.491,15.049L213.233,142.8l-28.036,28.035L57.455,43.084
		L42.903,57.637l127.751,127.751l-28.031,28.031L14.867,85.672L0.323,100.216l127.743,127.751L156.459,256.356z"></path></g></svg>